<?xml version="1.0" standalone="no"?>
<!DOCTYPE svg PUBLIC "-//W3C//DTD SVG 20010904//EN"
 "http://www.w3.org/TR/2001/REC-SVG-20010904/DTD/svg10.dtd">
<svg version="1.0" xmlns="http://www.w3.org/2000/svg"
 width="700.000000pt" height="700.000000pt" viewBox="0 0 700.000000 700.000000"
 preserveAspectRatio="xMidYMid meet">
<metadata>
Created by potrace 1.11, written by Peter Selinger 2001-2013
</metadata>
<g transform="translate(0.000000,700.000000) scale(0.100000,-0.100000)"
fill="#000000" stroke="none">
<path d="M3289 6886 c-2 -2 -47 -7 -99 -11 -52 -3 -97 -8 -100 -10 -3 -1 -36
-6 -75 -10 -38 -4 -72 -8 -75 -10 -3 -2 -26 -6 -50 -10 -83 -11 -374 -87 -490
-128 -239 -83 -478 -197 -695 -332 -93 -57 -317 -216 -345 -245 -3 -3 -34 -30
-70 -60 -152 -127 -372 -363 -502 -535 -48 -64 -188 -271 -188 -279 0 -2 -18
-33 -39 -68 -190 -313 -358 -792 -411 -1173 -6 -44 -13 -91 -15 -104 -20 -123
-28 -541 -12 -711 46 -516 206 -1003 475 -1450 412 -684 1065 -1210 1812
-1459 280 -94 485 -137 785 -168 154 -16 576 -8 725 13 54 7 173 26 195 30 11
3 36 7 55 10 70 11 307 75 420 113 349 118 732 325 1005 546 167 134 356 315
470 450 33 39 62 72 66 75 10 10 175 236 202 278 15 23 39 60 53 82 56 84 208
383 254 500 123 307 207 657 237 980 10 110 10 502 0 605 -8 80 -30 236 -46
330 -28 155 -106 431 -166 580 -28 71 -47 120 -46 120 1 0 -28 60 -64 134 -59
121 -180 339 -195 351 -3 3 -15 21 -27 41 -11 20 -59 88 -105 150 -477 644
-1161 1099 -1931 1284 -78 18 -158 36 -177 39 -50 8 -236 34 -295 41 -57 7
-530 17 -536 11z m419 -880 c126 -11 258 -31 372 -58 89 -21 283 -81 335 -103
148 -65 204 -92 295 -141 102 -55 274 -167 335 -218 355 -298 557 -551 732
-917 182 -381 267 -858 229 -1274 -14 -152 -16 -170 -21 -191 -2 -12 -7 -39
-11 -60 -15 -104 -84 -342 -134 -469 -246 -622 -740 -1128 -1354 -1389 -136
-58 -327 -120 -441 -142 -144 -28 -157 -31 -220 -38 -358 -42 -705 -16 -1029
79 -285 83 -589 236 -821 414 -77 59 -233 199 -293 264 -26 27 -52 55 -57 61
-171 180 -359 485 -465 752 -34 84 -96 285 -111 354 -10 50 -35 186 -43 240
-23 146 -24 506 -2 650 2 14 7 45 11 70 14 92 17 107 41 205 94 371 252 693
481 978 377 468 909 789 1490 896 145 27 163 30 273 37 52 4 96 7 97 8 5 4
248 -3 311 -8z"/>
<path d="M3245 5229 c-577 -89 -1053 -436 -1314 -956 -69 -140 -139 -356 -156
-488 -4 -27 -9 -61 -12 -75 -8 -44 -11 -348 -3 -392 4 -24 11 -68 14 -98 6
-48 30 -148 66 -275 7 -22 16 -44 21 -49 5 -6 9 -17 9 -25 0 -22 88 -202 140
-286 135 -220 377 -461 580 -579 205 -119 457 -211 630 -232 30 -3 74 -10 98
-14 42 -8 344 -5 392 3 14 2 48 8 75 12 339 49 690 230 949 489 77 77 226 256
226 271 0 3 15 28 34 57 110 174 203 429 237 653 40 267 -5 686 -92 857 -5 10
-9 23 -9 29 0 6 -16 45 -35 86 -19 41 -35 76 -35 79 0 2 -25 45 -56 95 -214
354 -531 616 -909 752 -109 39 -231 72 -310 82 -27 4 -61 9 -75 12 -65 13
-360 8 -465 -8z m435 -875 c433 -87 736 -504 688 -949 -42 -389 -348 -709
-738 -771 -101 -16 -267 -3 -385 29 -125 35 -277 129 -376 233 -255 270 -315
662 -152 989 182 362 564 548 963 469z"/>
</g>
</svg>
